<svg width="180" height="60" viewBox="0 0 180 60" fill="none" xmlns="http://www.w3.org/2000/svg">
  <path d="M40 15L60 25V45L40 55L20 45V25L40 15Z" fill="#F97316"/>
  <path d="M40 15L20 25V45L40 35V15Z" fill="#FB923C"/>
  <path d="M40 15L60 25V45L40 35V15Z" fill="#EA580C"/>
  <path d="M80 32.5C80 26.7 84.7 22 90.5 22H92.5C98.3 22 103 26.7 103 32.5C103 38.3 98.3 43 92.5 43H90.5C84.7 43 80 38.3 80 32.5Z" fill="#F97316"/>
  <path d="M105 22H110V43H105V22Z" fill="#F97316"/>
  <path d="M112 22H117V43H112V22Z" fill="#F97316"/>
  <path d="M138 32.5C138 38.3 133.3 43 127.5 43C121.7 43 117 38.3 117 32.5C117 26.7 121.7 22 127.5 22C133.3 22 138 26.7 138 32.5Z" fill="#F97316"/>
  <path d="M140 22H145V36.5C145 40.1 147.9 43 151.5 43C155.1 43 158 40.1 158 36.5V22H163V43H158V40.6C156.4 42.1 154.1 43 151.5 43C147.9 43 140 39.3 140 36.5V22Z" fill="#F97316"/>
  <path d="M165 22H170V25.5C171.6 23.3 174.2 22 177 22H180V27H177C173.7 27 170 30.7 170 34V43H165V22Z" fill="#F97316"/>
  <path d="M127.5 38C128.9 38 130.2 37.5 131.2 36.5C132.1 35.6 132.8 34.4 132.9 33L132.9 32.9C132.9 32.8 133 32.6 133 32.5C133 32.4 133 32.2 132.9 32.1L132.9 32C132.8 30.6 132.1 29.4 131.2 28.5C130.2 27.5 128.9 27 127.5 27C126.1 27 124.8 27.5 123.8 28.5C122.8 29.5 122.3 30.8 122.3 32.2V32.5C122.3 32.7 122.3 33 122.3 33.2C122.5 36 124.7 38 127.5 38Z" fill="white"/>
  <path d="M92.5 38C93.9 38 95.2 37.5 96.2 36.5C97.1 35.6 97.8 34.4 97.9 33L97.9 32.9C97.9 32.8 98 32.6 98 32.5C98 32.4 98 32.2 97.9 32.1L97.9 32C97.8 30.6 97.1 29.4 96.2 28.5C95.2 27.5 93.9 27 92.5 27H90.5C89.1 27 87.8 27.5 86.8 28.5C85.8 29.5 85.3 30.8 85.3 32.2V32.5C85.3 32.7 85.3 33 85.3 33.2C85.5 36 87.7 38 90.5 38H92.5Z" fill="white"/>
</svg>

